<?xml version="1.0" standalone="no"?><!DOCTYPE svg PUBLIC "-//W3C//DTD SVG 1.1//EN" "http://www.w3.org/Graphics/SVG/1.1/DTD/svg11.dtd"><svg t="1649474504595" class="icon" viewBox="0 0 1024 1024" version="1.1" xmlns="http://www.w3.org/2000/svg" p-id="2533" xmlns:xlink="http://www.w3.org/1999/xlink" width="200" height="200"><defs><style type="text/css"></style></defs><path d="M543.019136 61.453588h-44.683038L390.350719 303.483962v100.536835h264.376011V303.483962z" fill="#FFE38D" p-id="2534"></path><path d="M654.72673 434.901996H390.350719a30.8812 30.8812 0 0 1-30.8812-30.881199V303.483962c0-4.33572 0.914084-8.622031 2.680488-12.583059l107.989497-242.030375a30.8812 30.8812 0 0 1 28.200712-18.29814h44.683037a30.8812 30.8812 0 0 1 28.04013 17.939918l111.707593 242.030375c1.873459 4.055731 2.84107 8.473801 2.841071 12.941281v100.536835a30.885317 30.885317 0 0 1-30.885317 30.881199z m-233.494811-61.762399h202.613611v-62.874123l-100.586245-217.934804h-4.887464L421.231919 310.059599v63.079998z" fill="#6E6E96" p-id="2535"></path><path d="M807.209859 61.44947h-44.678919L654.541442 303.479845v100.536834h264.371894V303.479845z" fill="#78E6D2" p-id="2536"></path><path d="M918.913336 434.897879H654.541442a30.8812 30.8812 0 0 1-30.8812-30.8812V303.479845c0-4.33572 0.914084-8.622031 2.676371-12.58306l107.989497-242.030374a30.885317 30.885317 0 0 1 28.20483-18.298141h44.683037a30.8812 30.8812 0 0 1 28.040129 17.939919l111.703477 242.030374c1.873459 4.055731 2.84107 8.473801 2.84107 12.941282v100.536834a30.885317 30.885317 0 0 1-30.885317 30.8812z m-233.490694-61.7624h202.609494v-62.874123l-100.582127-217.930686h-4.887465L685.422642 310.055482v63.079997z" fill="#6E6E96" p-id="2537"></path><path d="M274.225055 61.44947H229.546135L121.560755 303.479845v100.536834h264.371893V303.479845z" fill="#FF8C8C" p-id="2538"></path><path d="M385.932648 434.897879H121.560755a30.8812 30.8812 0 0 1-30.8812-30.8812V303.479845c0-4.33572 0.914084-8.622031 2.680488-12.58306l107.989498-242.030374a30.8812 30.8812 0 0 1 28.200711-18.298141h44.67892a30.885317 30.885317 0 0 1 28.04013 17.939919l111.703476 242.030374c1.873459 4.055731 2.84107 8.473801 2.84107 12.941282v100.536834a30.8812 30.8812 0 0 1-30.8812 30.8812z m-233.490693-61.7624h202.609494v-62.874123L254.469322 92.33067H249.585975L152.441955 310.055482v63.079997z" fill="#6E6E96" p-id="2539"></path><path d="M390.350719 303.483962h264.376011v659.066568H390.350719z" fill="#FFE38D" p-id="2540"></path><path d="M654.722612 993.43173H390.350719a30.8812 30.8812 0 0 1-30.8812-30.8812V303.483962a30.8812 30.8812 0 0 1 30.8812-30.8812h264.376011a30.8812 30.8812 0 0 1 30.881199 30.8812v659.066568a30.8812 30.8812 0 0 1-30.885317 30.8812z m-233.490693-61.7624h202.613611V334.365162H421.231919v597.304168z" fill="#6E6E96" p-id="2541"></path><path d="M654.541442 303.479845h264.371894v659.070685H654.541442z" fill="#78E6D2" p-id="2542"></path><path d="M918.913336 993.43173H654.541442a30.877082 30.877082 0 0 1-30.8812-30.8812V303.479845a30.8812 30.8812 0 0 1 30.8812-30.8812h264.371894a30.8812 30.8812 0 0 1 30.881199 30.8812v659.070685c0 17.058775-13.822425 30.8812-30.881199 30.8812z m-233.490694-61.7624h202.609494V334.361045H685.422642v597.308285z" fill="#6E6E96" p-id="2543"></path><path d="M121.560755 303.479845h264.371893v659.070685H121.560755z" fill="#FF8C8C" p-id="2544"></path><path d="M385.932648 993.43173H121.560755a30.8812 30.8812 0 0 1-30.8812-30.8812V303.479845a30.8812 30.8812 0 0 1 30.8812-30.8812h264.371893a30.8812 30.8812 0 0 1 30.8812 30.8812v659.070685a30.8812 30.8812 0 0 1-30.8812 30.8812z m-233.490693-61.7624h202.609494V334.361045H152.441955v597.308285z" fill="#6E6E96" p-id="2545"></path><path d="M121.560755 303.479845h264.371893v100.536834H121.560755z" fill="#FFFFFF" p-id="2546"></path><path d="M385.932648 434.897879H121.560755a30.8812 30.8812 0 0 1-30.8812-30.8812V303.479845a30.8812 30.8812 0 0 1 30.8812-30.8812h264.371893a30.8812 30.8812 0 0 1 30.8812 30.8812v100.536834a30.8812 30.8812 0 0 1-30.8812 30.8812z m-233.490693-61.7624h202.609494v-38.774434H152.441955v38.774434z" fill="#6E6E96" p-id="2547"></path><path d="M390.350719 303.479845h264.376011v100.540952H390.350719z" fill="#FFFFFF" p-id="2548"></path><path d="M654.722612 434.901996H390.350719a30.8812 30.8812 0 0 1-30.8812-30.881199V303.479845a30.8812 30.8812 0 0 1 30.8812-30.8812h264.376011a30.8812 30.8812 0 0 1 30.881199 30.8812v100.540952a30.885317 30.885317 0 0 1-30.885317 30.881199z m-233.490693-61.762399h202.613611v-38.778552H421.231919v38.778552z" fill="#6E6E96" p-id="2549"></path><path d="M654.541442 303.479845h264.371894v100.540952H654.541442z" fill="#FFFFFF" p-id="2550"></path><path d="M918.913336 434.901996H654.541442a30.8812 30.8812 0 0 1-30.8812-30.881199V303.479845a30.8812 30.8812 0 0 1 30.8812-30.8812h264.371894a30.8812 30.8812 0 0 1 30.881199 30.8812v100.540952a30.8812 30.8812 0 0 1-30.881199 30.881199z m-233.490694-61.762399h202.609494v-38.778552H685.422642v38.778552z" fill="#6E6E96" p-id="2551"></path><path d="M822.872804 303.483962h96.040532v659.066568h-96.040532zM560.691417 272.602762h96.040532v659.066568h-96.040532zM289.892117 303.483962h96.040531v659.066568H289.892117z" fill="#6E6E96" opacity=".2" p-id="2552"></path><path d="M152.441955 434.901996h52.806852v496.767334H152.441955zM416.813848 434.901996h52.806852v496.767334H416.813848zM685.607929 434.901996h52.806852v496.767334h-52.806852z" fill="#FFFFFF" opacity=".5" p-id="2553"></path><path d="M253.744643 61.453588l36.147474 211.149174h83.992746zM511.454432 61.453588l36.143356 211.149174h84.000982zM782.611954 61.453588l36.143357 211.149174h83.996863z" fill="#6E6E96" opacity=".2" p-id="2554"></path></svg>