<?xml version="1.0" encoding="UTF-8"?>
<svg version="1.1" xmlns="http://www.w3.org/2000/svg" width="537" height="537">
<path d="M0 0 C2.71063555 1.28113117 5.28762732 2.73720282 7.875 4.25 C9.47570437 5.16296455 11.07731613 6.07433944 12.6796875 6.984375 C13.53530273 7.47228516 14.39091797 7.96019531 15.27246094 8.46289062 C20.14518084 11.20892039 25.07551836 13.84829594 30 16.5 C37.74039393 20.67920563 45.45327768 24.90155621 53.1328125 29.19140625 C59.39333699 32.68069499 65.69382787 36.09403485 72 39.5 C79.73982216 43.68027989 87.45326334 47.9015482 95.1328125 52.19140625 C101.39333699 55.68069499 107.69382787 59.09403485 114 62.5 C121.74357209 66.68230523 129.46121468 70.90481499 137.14379883 75.19799805 C143.29430281 78.62699151 149.48884416 81.97152116 155.6875 85.3125 C164.14960755 89.8789401 172.56428044 94.52245147 180.9375 99.25 C181.93289795 99.81114502 182.9282959 100.37229004 183.95385742 100.95043945 C185.32054565 101.7252063 185.32054565 101.7252063 186.71484375 102.515625 C187.52042725 102.97227539 188.32601074 103.42892578 189.15600586 103.89941406 C191 105 191 105 192 106 C192.09785825 108.71853757 192.12993566 111.41166147 192.12025452 114.13063049 C192.12153615 115.42435645 192.12153615 115.42435645 192.12284368 116.74421829 C192.12450114 119.65705481 192.1189728 122.56983473 192.11352539 125.48266602 C192.11324355 127.5616048 192.11340119 129.64054369 192.1139679 131.71948242 C192.11425599 137.38247439 192.10835731 143.04544537 192.10139394 148.70843244 C192.09516241 154.61949893 192.09455676 160.53056586 192.09336853 166.44163513 C192.09025462 177.64367695 192.08204043 188.84570906 192.07201904 200.0477466 C192.06085975 212.79722363 192.05534792 225.54670111 192.05032361 238.2961818 C192.03985786 264.53079326 192.02225727 290.76539609 192 317 C188.24630321 319.14901245 184.4921058 321.29714719 180.73748779 323.44454956 C179.46644288 324.17165761 178.19552338 324.89898497 176.92474365 325.6265564 C168.39431409 330.5103096 159.83909548 335.34495102 151.25 340.125 C141.7848247 345.40508326 132.39556705 350.80333017 123.05175781 356.29541016 C117.4099368 359.60990626 111.7376422 362.85403662 106 366 C118.46523439 372.8767887 130.99938871 379.59427266 143.64892578 386.12597656 C151.6287454 390.25778563 159.53318588 394.51430943 167.39453125 398.8671875 C173.85910347 402.43280312 180.37898966 405.68949483 187 409 C187 447.94 187 486.88 187 527 C182.84685588 525.61561863 179.72886471 524.46319688 176.0078125 522.41796875 C175.06824707 521.90500244 174.12868164 521.39203613 173.16064453 520.86352539 C172.15888184 520.31043701 171.15711914 519.75734863 170.125 519.1875 C167.95839633 518.00248898 165.79172789 516.81759638 163.625 515.6328125 C162.5215625 515.02727539 161.418125 514.42173828 160.28125 513.79785156 C155.23876271 511.03498874 150.18199392 508.29869192 145.125 505.5625 C144.14305664 505.03043945 143.16111328 504.49837891 142.14941406 503.95019531 C134.73202447 499.93214168 127.30455216 495.93300897 119.875 491.9375 C111.00728108 487.16816898 102.15805165 482.36659628 93.32324219 477.53662109 C85.1712793 473.08407839 76.99337127 468.68039776 68.8125 464.28125 C60.54744493 459.83609627 52.29359283 455.37064177 44.04394531 450.89697266 C36.66217067 446.89578413 29.27005265 442.91408492 21.875 438.9375 C13.90290489 434.64990748 5.94253627 430.34210331 -2 426 C-14.30215694 419.27537351 -26.65086237 412.63784244 -39 406 C-51.78401053 399.128407 -64.56591577 392.2533501 -77.3125 385.3125 C-78.6732666 384.57265869 -78.6732666 384.57265869 -80.06152344 383.81787109 C-80.90360352 383.35848145 -81.74568359 382.8990918 -82.61328125 382.42578125 C-83.34329346 382.02786377 -84.07330566 381.62994629 -84.82543945 381.2199707 C-87.24518686 379.86244541 -89.62085464 378.42748722 -92 377 C-92 426.5 -92 476 -92 527 C-96.30845844 525.56384719 -99.60546547 524.28431383 -103.5 522.1640625 C-104.5401123 521.60082275 -105.58022461 521.03758301 -106.65185547 520.45727539 C-107.75674316 519.85262451 -108.86163086 519.24797363 -110 518.625 C-111.15773926 517.99650146 -112.31547852 517.36800293 -113.50830078 516.72045898 C-117.00892561 514.81981852 -120.50474727 512.91050211 -124 511 C-125.87237234 509.97782154 -127.74476635 508.95568279 -129.6171875 507.93359375 C-132.25433294 506.49377856 -134.8912735 505.0535993 -137.52734375 503.61181641 C-144.3974738 499.85919321 -151.29309986 496.15512708 -158.1965332 492.4642334 C-167.60136246 487.43588994 -177.00183613 482.39969884 -186.375 477.3125 C-187.26574219 476.83167969 -188.15648437 476.35085938 -189.07421875 475.85546875 C-189.90308594 475.40429688 -190.73195313 474.953125 -191.5859375 474.48828125 C-192.2979834 474.10196533 -193.0100293 473.71564941 -193.74365234 473.31762695 C-194.86054443 472.66540161 -194.86054443 472.66540161 -196 472 C-197.02054537 471.60549872 -198.04109074 471.21099745 -199.09256172 470.80454159 C-201.53931485 469.13138915 -201.95691139 468.21021531 -202.56111121 465.26252091 C-202.78588105 461.43878012 -202.80982005 457.63747013 -202.77536011 453.80970764 C-202.78370297 452.31662482 -202.79465593 450.82355467 -202.80799973 449.33050817 C-202.83699891 445.22157741 -202.8283927 441.11344583 -202.81366611 437.00447047 C-202.80422916 432.57556017 -202.8291988 428.14682613 -202.84970093 423.7179718 C-202.88413999 415.03920878 -202.88574408 406.36073494 -202.87527512 397.68192131 C-202.86720096 390.62968334 -202.87006777 383.57753102 -202.88077164 376.52529716 C-202.8830169 375.02125437 -202.8830169 375.02125437 -202.88530753 373.48682688 C-202.8883704 371.45002765 -202.89144709 369.41322844 -202.89453746 367.37642925 C-202.9220103 348.26424028 -202.91109619 329.15221491 -202.88816704 310.04002964 C-202.86829936 292.54507844 -202.89418438 275.0505502 -202.94203542 257.55566425 C-202.99076968 239.60296235 -203.01004503 221.65045765 -202.99672997 203.6976909 C-202.98973486 193.61410661 -202.99427959 183.53084772 -203.02923203 173.44731331 C-203.05861674 164.8633502 -203.06002595 156.27994156 -203.0250902 147.69598968 C-203.00801501 143.31434351 -203.00390098 138.93368903 -203.03439331 134.55209351 C-203.06195045 130.54270658 -203.05274723 126.53516705 -203.01391484 122.52588897 C-203.00635093 121.07371401 -203.01236586 119.6213935 -203.03313814 118.16934741 C-203.17753156 107.30541174 -203.17753156 107.30541174 -200.26220536 104.07348049 C-198.20798011 102.76268962 -196.27480864 101.85764205 -194 101 C-192.45094971 100.13169556 -192.45094971 100.13169556 -190.87060547 99.24584961 C-189.87947754 98.71999268 -188.88834961 98.19413574 -187.8671875 97.65234375 C-186.74280273 97.05341309 -185.61841797 96.45448242 -184.45996094 95.83740234 C-183.87565308 95.5277655 -183.29134521 95.21812866 -182.68933105 94.89910889 C-179.56309812 93.24218229 -176.4420422 91.57554688 -173.3203125 89.91015625 C-172.69415039 89.57640991 -172.06798828 89.24266357 -171.42285156 88.89880371 C-165.84680145 85.92449717 -160.29400411 82.90861773 -154.75 79.875 C-147.17617584 75.73226135 -139.59282815 71.60781491 -132 67.5 C-124.32566777 63.34728151 -116.65827508 59.18225685 -109 55 C-100.33080682 50.26567116 -91.64825432 45.5564461 -82.9609375 40.85546875 C-76.30027424 37.24976086 -69.64735267 33.63018251 -63 30 C-57.3584686 26.91910605 -51.71456549 23.84278548 -46.0625 20.78125 C-45.06331543 20.24000488 -44.06413086 19.69875977 -43.03466797 19.14111328 C-41.02443564 18.05400292 -39.01305503 16.96901301 -37.00048828 15.88623047 C-31.90181811 13.13848898 -26.83409882 10.34937749 -21.8046875 7.4765625 C-20.80824219 6.91388672 -19.81179687 6.35121094 -18.78515625 5.77148438 C-16.89201078 4.70039603 -15.00609694 3.61638889 -13.12890625 2.51757812 C-5.17451441 -1.95450408 -5.17451441 -1.95450408 0 0 Z " fill="#FEFEFE" transform="translate(271,1)"/>
<path d="M0 0 C3.09328805 1.58458631 6.12503818 3.2563409 9.15698242 4.95532227 C10.89493853 5.91055736 12.63290901 6.86576716 14.37161255 7.81964111 C16.18890986 8.81798655 18.00378475 9.82064379 19.81860352 10.82348633 C25.67140306 14.04972733 31.57330061 17.18426219 37.46948242 20.33032227 C47.70855643 25.80882514 57.93731031 31.30622899 68.1550293 36.82446289 C76.90160216 41.54217095 85.68555546 46.18000799 94.46948242 50.83032227 C94.46948242 87.46032227 94.46948242 124.09032227 94.46948242 161.83032227 C86.87948242 165.79032227 79.28948242 169.75032227 71.46948242 173.83032227 C67.60522773 175.89922722 63.74803729 177.97032749 59.90698242 180.08032227 C59.00189941 180.575 58.09681641 181.06967773 57.16430664 181.5793457 C52.10461286 184.35328875 47.08612793 187.1859593 42.09448242 190.08032227 C36.87964453 193.08746345 31.56441361 195.81943529 26.16064453 198.46435547 C18.47213302 202.26027607 10.96923169 206.39999703 3.4543457 210.52636719 C2.46289551 211.0688208 1.47144531 211.61127441 0.44995117 212.17016602 C-0.43797119 212.65864014 -1.32589355 213.14711426 -2.24072266 213.65039062 C-4.53051758 214.83032227 -4.53051758 214.83032227 -7.53051758 215.83032227 C-10.18408203 214.75732422 -10.18408203 214.75732422 -13.39379883 213.06860352 C-13.97281448 212.76719452 -14.55183014 212.46578552 -15.14839172 212.15524292 C-17.05191193 211.16088157 -18.94736671 210.15209371 -20.84301758 209.14282227 C-22.17321243 208.4439538 -23.50378273 207.74579951 -24.8347168 207.04833984 C-33.17695051 202.6642597 -41.45550966 198.16732372 -49.70410156 193.60961914 C-59.95043082 187.98396432 -70.37742155 182.70365291 -80.79858398 177.41113281 C-81.51882751 177.04378021 -82.23907104 176.67642761 -82.98114014 176.29794312 C-84.30037555 175.62512272 -85.62086668 174.95475274 -86.94317627 174.28799438 C-94.61508775 170.36978786 -102.00308337 166.06450401 -109.53051758 161.83032227 C-109.53051758 125.20032227 -109.53051758 88.57032227 -109.53051758 50.83032227 C-96.83432367 43.90512559 -84.19900556 37.03081264 -71.31463623 30.490448 C-60.27258628 24.88208511 -49.25777921 19.23741143 -38.40551758 13.26782227 C-37.55916748 12.8041626 -36.71281738 12.34050293 -35.84082031 11.86279297 C-32.51866199 10.038895 -29.20114754 8.20813495 -25.89916992 6.34790039 C-23.3056067 4.88863563 -20.70050523 3.45201632 -18.09301758 2.01782227 C-16.94712158 1.35834595 -16.94712158 1.35834595 -15.77807617 0.68554688 C-9.93653229 -2.49415179 -6.26137672 -2.89418774 0 0 Z " fill="#383636" transform="translate(273.530517578125,106.169677734375)"/>
<path d="M0 0 C2.71063555 1.28113117 5.28762732 2.73720282 7.875 4.25 C9.47570437 5.16296455 11.07731613 6.07433944 12.6796875 6.984375 C13.53530273 7.47228516 14.39091797 7.96019531 15.27246094 8.46289062 C20.14518084 11.20892039 25.07551836 13.84829594 30 16.5 C37.74039393 20.67920563 45.45327768 24.90155621 53.1328125 29.19140625 C59.39333699 32.68069499 65.69382787 36.09403485 72 39.5 C79.73982216 43.68027989 87.45326334 47.9015482 95.1328125 52.19140625 C101.39333699 55.68069499 107.69382787 59.09403485 114 62.5 C121.74357209 66.68230523 129.46121468 70.90481499 137.14379883 75.19799805 C143.29430281 78.62699151 149.48884416 81.97152116 155.6875 85.3125 C164.14960755 89.8789401 172.56428044 94.52245147 180.9375 99.25 C181.93289795 99.81114502 182.9282959 100.37229004 183.95385742 100.95043945 C185.32054565 101.7252063 185.32054565 101.7252063 186.71484375 102.515625 C187.52042725 102.97227539 188.32601074 103.42892578 189.15600586 103.89941406 C191 105 191 105 192 106 C192.09785825 108.71853757 192.12993566 111.41166147 192.12025452 114.13063049 C192.12153615 115.42435645 192.12153615 115.42435645 192.12284368 116.74421829 C192.12450114 119.65705481 192.1189728 122.56983473 192.11352539 125.48266602 C192.11324355 127.5616048 192.11340119 129.64054369 192.1139679 131.71948242 C192.11425599 137.38247439 192.10835731 143.04544537 192.10139394 148.70843244 C192.09516241 154.61949893 192.09455676 160.53056586 192.09336853 166.44163513 C192.09025462 177.64367695 192.08204043 188.84570906 192.07201904 200.0477466 C192.06085975 212.79722363 192.05534792 225.54670111 192.05032361 238.2961818 C192.03985786 264.53079326 192.02225727 290.76539609 192 317 C188.24630321 319.14901245 184.4921058 321.29714719 180.73748779 323.44454956 C179.46644288 324.17165761 178.19552338 324.89898497 176.92474365 325.6265564 C168.39431409 330.5103096 159.83909548 335.34495102 151.25 340.125 C141.7848247 345.40508326 132.39556705 350.80333017 123.05175781 356.29541016 C117.4099368 359.60990626 111.7376422 362.85403662 106 366 C118.46523439 372.8767887 130.99938871 379.59427266 143.64892578 386.12597656 C151.6287454 390.25778563 159.53318588 394.51430943 167.39453125 398.8671875 C173.85910347 402.43280312 180.37898966 405.68949483 187 409 C187 447.94 187 486.88 187 527 C182.84685588 525.61561863 179.72886471 524.46319688 176.0078125 522.41796875 C175.06824707 521.90500244 174.12868164 521.39203613 173.16064453 520.86352539 C172.15888184 520.31043701 171.15711914 519.75734863 170.125 519.1875 C167.95839633 518.00248898 165.79172789 516.81759638 163.625 515.6328125 C162.5215625 515.02727539 161.418125 514.42173828 160.28125 513.79785156 C155.23876271 511.03498874 150.18199392 508.29869192 145.125 505.5625 C144.14305664 505.03043945 143.16111328 504.49837891 142.14941406 503.95019531 C134.73202447 499.93214168 127.30455216 495.93300897 119.875 491.9375 C111.00728108 487.16816898 102.15805165 482.36659628 93.32324219 477.53662109 C85.1712793 473.08407839 76.99337127 468.68039776 68.8125 464.28125 C60.54744493 459.83609627 52.29359283 455.37064177 44.04394531 450.89697266 C36.66217067 446.89578413 29.27005265 442.91408492 21.875 438.9375 C13.90290489 434.64990748 5.94253627 430.34210331 -2 426 C-14.30215694 419.27537351 -26.65086237 412.63784244 -39 406 C-51.78401053 399.128407 -64.56591577 392.2533501 -77.3125 385.3125 C-78.6732666 384.57265869 -78.6732666 384.57265869 -80.06152344 383.81787109 C-80.90360352 383.35848145 -81.74568359 382.8990918 -82.61328125 382.42578125 C-83.34329346 382.02786377 -84.07330566 381.62994629 -84.82543945 381.2199707 C-87.24518686 379.86244541 -89.62085464 378.42748722 -92 377 C-92 426.5 -92 476 -92 527 C-96.30845844 525.56384719 -99.60546547 524.28431383 -103.5 522.1640625 C-104.5401123 521.60082275 -105.58022461 521.03758301 -106.65185547 520.45727539 C-107.75674316 519.85262451 -108.86163086 519.24797363 -110 518.625 C-111.15773926 517.99650146 -112.31547852 517.36800293 -113.50830078 516.72045898 C-117.00892561 514.81981852 -120.50474727 512.91050211 -124 511 C-125.87237234 509.97782154 -127.74476635 508.95568279 -129.6171875 507.93359375 C-132.25433294 506.49377856 -134.8912735 505.0535993 -137.52734375 503.61181641 C-144.3974738 499.85919321 -151.29309986 496.15512708 -158.1965332 492.4642334 C-167.60136246 487.43588994 -177.00183613 482.39969884 -186.375 477.3125 C-187.26574219 476.83167969 -188.15648437 476.35085938 -189.07421875 475.85546875 C-189.90308594 475.40429688 -190.73195313 474.953125 -191.5859375 474.48828125 C-192.2979834 474.10196533 -193.0100293 473.71564941 -193.74365234 473.31762695 C-194.86054443 472.66540161 -194.86054443 472.66540161 -196 472 C-197.02054537 471.60549872 -198.04109074 471.21099745 -199.09256172 470.80454159 C-201.53931485 469.13138915 -201.95691139 468.21021531 -202.56111121 465.26252091 C-202.78588105 461.43878012 -202.80982005 457.63747013 -202.77536011 453.80970764 C-202.78370297 452.31662482 -202.79465593 450.82355467 -202.80799973 449.33050817 C-202.83699891 445.22157741 -202.8283927 441.11344583 -202.81366611 437.00447047 C-202.80422916 432.57556017 -202.8291988 428.14682613 -202.84970093 423.7179718 C-202.88413999 415.03920878 -202.88574408 406.36073494 -202.87527512 397.68192131 C-202.86720096 390.62968334 -202.87006777 383.57753102 -202.88077164 376.52529716 C-202.8830169 375.02125437 -202.8830169 375.02125437 -202.88530753 373.48682688 C-202.8883704 371.45002765 -202.89144709 369.41322844 -202.89453746 367.37642925 C-202.9220103 348.26424028 -202.91109619 329.15221491 -202.88816704 310.04002964 C-202.86829936 292.54507844 -202.89418438 275.0505502 -202.94203542 257.55566425 C-202.99076968 239.60296235 -203.01004503 221.65045765 -202.99672997 203.6976909 C-202.98973486 193.61410661 -202.99427959 183.53084772 -203.02923203 173.44731331 C-203.05861674 164.8633502 -203.06002595 156.27994156 -203.0250902 147.69598968 C-203.00801501 143.31434351 -203.00390098 138.93368903 -203.03439331 134.55209351 C-203.06195045 130.54270658 -203.05274723 126.53516705 -203.01391484 122.52588897 C-203.00635093 121.07371401 -203.01236586 119.6213935 -203.03313814 118.16934741 C-203.17753156 107.30541174 -203.17753156 107.30541174 -200.26220536 104.07348049 C-198.20798011 102.76268962 -196.27480864 101.85764205 -194 101 C-192.45094971 100.13169556 -192.45094971 100.13169556 -190.87060547 99.24584961 C-189.87947754 98.71999268 -188.88834961 98.19413574 -187.8671875 97.65234375 C-186.74280273 97.05341309 -185.61841797 96.45448242 -184.45996094 95.83740234 C-183.87565308 95.5277655 -183.29134521 95.21812866 -182.68933105 94.89910889 C-179.56309812 93.24218229 -176.4420422 91.57554688 -173.3203125 89.91015625 C-172.69415039 89.57640991 -172.06798828 89.24266357 -171.42285156 88.89880371 C-165.84680145 85.92449717 -160.29400411 82.90861773 -154.75 79.875 C-147.17617584 75.73226135 -139.59282815 71.60781491 -132 67.5 C-124.32566777 63.34728151 -116.65827508 59.18225685 -109 55 C-100.33080682 50.26567116 -91.64825432 45.5564461 -82.9609375 40.85546875 C-76.30027424 37.24976086 -69.64735267 33.63018251 -63 30 C-57.3584686 26.91910605 -51.71456549 23.84278548 -46.0625 20.78125 C-45.06331543 20.24000488 -44.06413086 19.69875977 -43.03466797 19.14111328 C-41.02443564 18.05400292 -39.01305503 16.96901301 -37.00048828 15.88623047 C-31.90181811 13.13848898 -26.83409882 10.34937749 -21.8046875 7.4765625 C-20.80824219 6.91388672 -19.81179687 6.35121094 -18.78515625 5.77148438 C-16.89201078 4.70039603 -15.00609694 3.61638889 -13.12890625 2.51757812 C-5.17451441 -1.95450408 -5.17451441 -1.95450408 0 0 Z M-11.5234375 18.640625 C-13.16058716 19.49491089 -13.16058716 19.49491089 -14.83081055 20.36645508 C-16.0123614 20.99401283 -17.19375384 21.62186892 -18.375 22.25 C-19.6036515 22.89594222 -20.83257753 23.54136249 -22.06176758 24.1862793 C-30.183857 28.45891053 -38.2546971 32.82511933 -46.29638672 37.24707031 C-54.48828746 41.74591312 -62.74087923 46.12632264 -71 50.5 C-80.02858353 55.28226043 -89.04347291 60.08358034 -98 65 C-106.91595879 69.89348511 -115.8884738 74.6753789 -124.875 79.4375 C-145.67390977 90.46111113 -166.33404183 101.72765918 -187 113 C-187 227.51 -187 342.02 -187 460 C-172.45424959 468.10135315 -172.45424959 468.10135315 -157.75 475.875 C-149.95032748 479.91195018 -142.20258299 484.0307081 -134.5 488.25 C-133.59314453 488.7464502 -132.68628906 489.24290039 -131.75195312 489.75439453 C-129.99795165 490.71499541 -128.24404223 491.67576441 -126.49023438 492.63671875 C-122.74902272 494.68484874 -119.00397815 496.72536184 -115.25 498.75 C-114.63576172 499.08547852 -114.02152344 499.42095703 -113.38867188 499.76660156 C-110.36588931 501.47736214 -110.36588931 501.47736214 -107 502 C-107 452.5 -107 403 -107 352 C-92.80977055 359.64089278 -78.6265751 367.2808423 -64.484375 375.0078125 C-58.70485545 378.16387123 -52.91587549 381.30233649 -47.125 384.4375 C-46.12855469 384.97697266 -45.13210937 385.51644531 -44.10546875 386.07226562 C-41.07044746 387.71509328 -38.03525713 389.35760814 -35 391 C-23.36561796 397.29541867 -11.73339364 403.59425932 -0.125 409.9375 C7.90032071 414.32228173 15.94519886 418.66962718 24 423 C32.95549496 427.81459831 41.89444783 432.65790388 50.81689453 437.53344727 C57.49542622 441.18204984 64.18266127 444.81428686 70.875 448.4375 C71.87144531 448.97697266 72.86789062 449.51644531 73.89453125 450.07226562 C76.92955254 451.71509328 79.96474287 453.35760814 83 455 C95.5292487 461.77963522 108.05321031 468.56819528 120.55322266 475.40161133 C128.95829984 479.99038215 137.39776508 484.51450038 145.83740234 489.03930664 C152.85558543 492.81297465 159.79820656 496.68507764 166.65625 500.7421875 C168.85038757 502.15762444 168.85038757 502.15762444 171 502 C171 474.94 171 447.88 171 420 C163.08 415.71 155.16 411.42 147 407 C135.1655658 400.32247009 135.1655658 400.32247009 130.1328125 397.4609375 C123.18084353 393.52400476 116.18601111 389.66585564 109.1875 385.8125 C108.57110657 385.47310394 107.95471313 385.13370789 107.31964111 384.7840271 C104.90226442 383.45313292 102.48483229 382.12233961 100.06723022 380.79185486 C92.36493257 376.55171885 84.68144876 372.2777546 77 368 C77 367.34 77 366.68 77 366 C78.04788696 365.39696045 78.04788696 365.39696045 79.11694336 364.78173828 C94.89930033 355.69622277 110.64833156 346.56195812 126.30078125 337.25390625 C128.6170292 335.8773367 130.93339601 334.50097002 133.25 333.125 C133.82786255 332.78166626 134.4057251 332.43833252 135.00109863 332.08459473 C143.68320707 326.92923243 152.40879841 321.85661369 161.20214844 316.89306641 C161.98493164 316.4501123 162.76771484 316.0071582 163.57421875 315.55078125 C164.24026123 315.17606689 164.90630371 314.80135254 165.5925293 314.4152832 C166.38699463 313.94823975 167.18145996 313.48119629 168 313 C168.96682189 312.71156597 168.96682189 312.71156597 169.95317554 312.41730499 C172.74077068 311.30839081 174.1090779 310.36015688 176 308 C177.25004232 301.87271527 177.00989322 295.76171717 176.90820312 289.53198242 C176.90594635 287.61008804 176.90721357 285.68818676 176.91174316 283.76629639 C176.91404017 278.54921309 176.86698219 273.33359888 176.8111515 268.11685729 C176.76116706 262.66500135 176.75644374 257.21311234 176.74694824 251.76106262 C176.72207548 241.43714955 176.65641569 231.11391357 176.57615232 220.79029876 C176.486757 209.03717692 176.44275315 197.28402287 176.40258884 185.53064573 C176.31895057 161.35338832 176.1782218 137.17673208 176 113 C175.33057373 112.6376123 174.66114746 112.27522461 173.97143555 111.90185547 C170.87669418 110.22641457 167.78209647 108.55070851 164.6875 106.875 C163.63498047 106.30523437 162.58246094 105.73546875 161.49804688 105.1484375 C154.65860491 101.44461662 147.82605066 97.72843918 141 94 C133.34142538 89.81829022 125.67429187 85.65279804 118 81.5 C109.42015585 76.85717945 100.85099696 72.19528508 92.2890625 67.51953125 C85.53370032 63.83214874 78.76866637 60.1628959 72 56.5 C53.75110957 46.62108813 35.54565985 36.66619238 17.38542175 26.62535095 C15.67694054 25.68195833 13.96666038 24.74182594 12.25634766 23.80175781 C10.10722434 22.61263425 7.96600393 21.40909955 5.83349609 20.19042969 C4.37484131 19.36526855 4.37484131 19.36526855 2.88671875 18.5234375 C2.03682373 18.03536621 1.18692871 17.54729492 0.3112793 17.04443359 C-4.3538946 14.93630917 -7.3032294 16.4215287 -11.5234375 18.640625 Z " fill="#383636" transform="translate(271,1)"/>
<path d="M0 0 C3.13758857 1.40031455 6.27339569 2.8045774 9.40893555 4.20947266 C10.28360222 4.59978165 11.15826889 4.99009064 12.05944061 5.39222717 C20.3040351 9.09032522 28.38100973 13.08966958 36.44006348 17.17315674 C40.52945405 19.24478498 44.62600694 21.30214734 48.72265625 23.359375 C49.92237564 23.96218796 49.92237564 23.96218796 51.14633179 24.57717896 C60.45479874 29.24540065 69.84230413 33.74455498 79.26464844 38.17822266 C80.51666896 38.77111814 81.76094215 39.38047108 83 40 C83 70.69 83 101.38 83 133 C79.15010676 131.4600427 75.61168705 129.84065148 71.94140625 127.9453125 C71.36467667 127.64787643 70.78794708 127.35044037 70.19374084 127.04399109 C68.31522542 126.07373951 66.43874163 125.09964047 64.5625 124.125 C63.59301422 123.62279434 63.59301422 123.62279434 62.60394287 123.11044312 C53.34173859 118.3108386 44.14422133 113.40698342 35.00854492 108.36987305 C27.21307704 104.08138428 19.3285449 99.97298113 11.40869141 95.91918945 C10.04236572 95.21475708 10.04236572 95.21475708 8.6484375 94.49609375 C7.44453369 93.88012329 7.44453369 93.88012329 6.21630859 93.25170898 C5.48492676 92.83864502 4.75354492 92.42558105 4 92 C3.30365448 91.65471252 2.60730896 91.30942505 1.88986206 90.95367432 C-0.5658012 88.4150942 -0.47258906 86.414717 -0.49768066 82.97868347 C-0.48329956 82.15725357 -0.46891846 81.33582367 -0.45410156 80.48950195 C-0.45468567 79.62099609 -0.45526978 78.75249023 -0.45587158 77.85766602 C-0.45308265 74.98413256 -0.42195272 72.1116337 -0.390625 69.23828125 C-0.38316548 67.24717272 -0.37747119 65.25605685 -0.37347412 63.26493835 C-0.35819504 58.02208213 -0.31889351 52.77966854 -0.2746582 47.5369873 C-0.23375459 42.18813058 -0.2154736 36.83920239 -0.1953125 31.49023438 C-0.15240157 20.99329501 -0.08412264 10.4966843 0 0 Z " fill="#69C6C1" transform="translate(178,172)"/>
<path d="M0 0 C2.29156682 1.07726863 4.4947125 2.18733292 6.71484375 3.39453125 C7.35825211 3.73781967 8.00166046 4.08110809 8.66456604 4.43479919 C10.75898459 5.55440989 12.84825662 6.6832661 14.9375 7.8125 C16.39297083 8.59325521 17.84870214 9.37352504 19.3046875 10.15332031 C29.10798924 15.4109227 38.88631033 20.7152763 48.63671875 26.0703125 C52.62564069 28.25785867 56.63136345 30.4119518 60.64453125 32.5546875 C61.75570312 33.14991211 62.866875 33.74513672 64.01171875 34.35839844 C66.1720576 35.51462713 68.33473631 36.66649711 70.5 37.81347656 C71.94826172 38.59029785 71.94826172 38.59029785 73.42578125 39.3828125 C74.28598877 39.84059082 75.14619629 40.29836914 76.0324707 40.77001953 C78 42 78 42 79 44 C78.00895264 44.49290527 77.01790527 44.98581055 75.99682617 45.49365234 C54.33292218 56.20173104 54.33292218 56.20173104 32.875 67.3125 C29.91867082 68.87881519 26.96005263 70.44073321 24 72 C22.41759521 72.8348291 22.41759521 72.8348291 20.80322266 73.68652344 C17.27332196 75.53783898 13.73209027 77.36449123 10.1875 79.1875 C9.07036621 79.77764893 7.95323242 80.36779785 6.80224609 80.97583008 C5.74730957 81.51361084 4.69237305 82.0513916 3.60546875 82.60546875 C2.20010864 83.33479614 2.20010864 83.33479614 0.76635742 84.07885742 C-4.59356257 85.86360529 -9.0160397 83.72142297 -13.82342529 81.33712769 C-14.54991272 80.96669342 -15.27640015 80.59625916 -16.02490234 80.21459961 C-16.80606415 79.82431076 -17.58722595 79.43402191 -18.39205933 79.03190613 C-20.96055355 77.74627112 -23.52320054 76.44941174 -26.0859375 75.15234375 C-27.87063139 74.25626476 -29.65568099 73.36089389 -31.44107056 72.46620178 C-36.12993937 70.11414603 -40.81392269 67.75251869 -45.49694824 65.38885498 C-50.28020421 62.97673631 -55.0680254 60.57371575 -59.85546875 58.16992188 C-69.24146557 53.45549999 -78.62232554 48.73095211 -88 44 C-85.28042917 41.13456865 -82.56737056 39.57790125 -79.03125 37.77734375 C-78.14960678 37.32510941 -78.14960678 37.32510941 -77.25015259 36.86373901 C-75.33602828 35.88315761 -73.41802067 34.91043447 -71.5 33.9375 C-70.17006566 33.25742783 -68.84047774 32.5766778 -67.51123047 31.89526367 C-65.51983651 30.87447007 -63.5282719 29.85403306 -61.53561401 28.83570862 C-56.37822131 26.19978457 -51.24424212 23.52182302 -46.125 20.8125 C-41.10635352 18.1600891 -36.08237276 15.5187554 -31.046875 12.8984375 C-30.02190918 12.36500732 -28.99694336 11.83157715 -27.94091797 11.28198242 C-25.96131639 10.25245718 -23.98120895 9.22390377 -22.00048828 8.1965332 C-21.09024902 7.72304443 -20.18000977 7.24955566 -19.2421875 6.76171875 C-18.36143555 6.30587402 -17.48068359 5.8500293 -16.57324219 5.38037109 C-14.85864037 4.46060272 -13.16559913 3.49945715 -11.49707031 2.49853516 C-10.71686523 2.03108887 -9.93666016 1.56364258 -9.1328125 1.08203125 C-8.4536377 0.65768799 -7.77446289 0.23334473 -7.07470703 -0.20385742 C-4.24771592 -1.2886795 -2.88189561 -0.91207594 0 0 Z " fill="#69C6C1" transform="translate(270,118)"/>
</svg>
